<svg width="60" height="66" viewBox="0 0 60 66" fill="none" xmlns="http://www.w3.org/2000/svg">
<path fill-rule="evenodd" clip-rule="evenodd" d="M25.1156 61.9414C18.0334 61.9414 10.8856 61.8535 3.82527 61.9414L3.78155 3.91255C22.121 4.02245 40.8539 1.49468 49.3132 7.69322C59.4119 15.6722 53.0729 27.4098 45.1382 31.0366L29.7934 31.3883C29.2688 33.0588 29.2251 33.1028 29.859 34.6634C37.0286 35.2129 51.8269 29.8497 55.4117 46.2472L29.1376 46.2033C22.4707 45.324 18.3176 42.0709 16.8749 35.2129C16.5033 28.7067 18.405 22.662 24.7222 20.5079C31.4765 18.178 41.138 21.9367 41.6189 18.112C41.8157 16.5074 41.2473 16.5734 40.2855 16.0239C38.9959 15.3205 26.6457 15.4304 23.0828 16.6613C21.5308 17.2108 19.7602 18.09 18.5799 19.2111C7.65054 29.6958 11.8255 47.0825 26.8643 50.0059C29.4874 50.5334 51.7395 50.2477 55.4773 50.2477C51.4772 65.2824 37.7281 61.9194 25.1156 61.9414ZM57.6851 13.1224C57.379 11.9135 57.226 11.32 56.7014 10.199C52.8543 -0.461593 34.9957 -0.175845 23.2795 0.0879225L0.0218587 0L0 65.7001C2.33888 66.2496 11.1698 65.8759 14.1863 65.8759C19.9788 65.8759 37.7281 66.1617 42.1217 65.81C56.7014 64.667 65.729 50.9511 55.8489 36.6637C55.0839 35.5646 51.6083 33.0808 49.6192 32.5093C49.7285 32.3994 49.8378 32.2675 49.9471 32.1576C49.9689 32.1357 50.0564 32.0477 50.1001 32.0038C56.308 26.7944 59.9146 21.9147 57.6851 13.1224Z" fill="#242F65"/>
<path fill-rule="evenodd" clip-rule="evenodd" d="M25.1156 61.9414C18.0334 61.9414 10.8856 61.8535 3.82527 61.9414L3.78155 3.91255C22.121 4.02245 40.8539 1.49468 49.3132 7.69322C59.4119 15.6722 53.0729 27.4098 45.1382 31.0366L29.7934 31.3883C29.2688 33.0588 29.2251 33.1028 29.859 34.6634C37.0286 35.2129 51.8269 29.8497 55.4117 46.2472L29.1376 46.2033C22.4707 45.324 18.3176 42.0709 16.8749 35.2129C16.5033 28.7067 18.405 22.662 24.7222 20.5079C31.4765 18.178 41.138 21.9367 41.6189 18.112C41.8157 16.5074 41.2473 16.5734 40.2855 16.0239C38.9959 15.3205 26.6457 15.4304 23.0828 16.6613C21.5308 17.2108 19.7602 18.09 18.5799 19.2111C7.65054 29.6958 11.8255 47.0825 26.8643 50.0059C29.4874 50.5334 51.7395 50.2477 55.4773 50.2477C51.4772 65.2824 37.7281 61.9194 25.1156 61.9414ZM57.6851 13.1224C57.379 11.9135 57.226 11.32 56.7014 10.199C52.8543 -0.461593 34.9957 -0.175845 23.2795 0.0879225L0.0218587 0L0 65.7001C2.33888 66.2496 11.1698 65.8759 14.1863 65.8759C19.9788 65.8759 37.7281 66.1617 42.1217 65.81C56.7014 64.667 65.729 50.9511 55.8489 36.6637C55.0839 35.5646 51.6083 33.0808 49.6192 32.5093C49.7285 32.3994 49.8378 32.2675 49.9471 32.1576C49.9689 32.1357 50.0564 32.0477 50.1001 32.0038C56.308 26.7944 59.9146 21.9147 57.6851 13.1224Z" fill="url(#paint0_linear_4225_14)"/>
<defs>
<linearGradient id="paint0_linear_4225_14" x1="30" y1="0" x2="30" y2="66" gradientUnits="userSpaceOnUse">
<stop offset="0.55" stop-color="#CFFF9C" stop-opacity="0"/>
<stop offset="0.673077" stop-color="#CFFF9C"/>
</linearGradient>
</defs>
</svg>
