<svg width="65" height="64" viewBox="0 0 65 64" fill="none" xmlns="http://www.w3.org/2000/svg">
<rect width="65" height="64" rx="10" fill="#1C3F3A"/>
<path d="M24.7501 36.5C24.638 36.5 24.526 36.5164 24.4191 36.5511C23.8116 36.7484 23.1727 36.875 22.5001 36.875C21.8274 36.875 21.1885 36.7484 20.5805 36.5511C20.4737 36.5164 20.3621 36.5 20.2501 36.5C17.341 36.5 14.9846 38.8662 15.0001 41.7791C15.0066 43.01 16.0187 44 17.2501 44H27.7501C28.9815 44 29.9935 43.01 30.0001 41.7791C30.0155 38.8662 27.6591 36.5 24.7501 36.5ZM22.5001 35C24.9854 35 27.0001 32.9853 27.0001 30.5C27.0001 28.0147 24.9854 26 22.5001 26C20.0148 26 18.0001 28.0147 18.0001 30.5C18.0001 32.9853 20.0148 35 22.5001 35ZM42.7501 20H24.7501C23.5093 20 22.5001 21.043 22.5001 22.3245V24.5C23.5979 24.5 24.6141 24.8178 25.5001 25.3344V23H42.0001V36.5H39.0001V33.5H33.0001V36.5H29.4263C30.3216 37.2823 30.9788 38.3155 31.2868 39.5H42.7501C43.9909 39.5 45.0001 38.457 45.0001 37.1755V22.3245C45.0001 21.043 43.9909 20 42.7501 20Z" fill="#E3F488"/>
</svg>
