<svg width="14" height="14" viewBox="0 0 14 14" fill="none" xmlns="http://www.w3.org/2000/svg">
<path d="M12.9349 0.977888C12.882 0.951447 12.8269 0.936025 12.7697 0.931618C12.7124 0.927211 12.6573 0.938228 12.6044 0.964667L8.69128 2.92123L4.77816 0.964667C4.73409 0.938228 4.68562 0.925008 4.63273 0.925008C4.57985 0.925008 4.52697 0.938228 4.47409 0.964667L0.415549 3.00055C0.362669 3.02699 0.318602 3.06665 0.283349 3.11953C0.248095 3.17241 0.230469 3.2297 0.230469 3.29139V13.4444C0.230469 13.5061 0.243689 13.5633 0.270129 13.6162C0.296569 13.6691 0.336229 13.7088 0.389109 13.7352C0.415549 13.7528 0.444192 13.7661 0.475039 13.7749C0.505886 13.7837 0.538936 13.7881 0.574189 13.7881C0.600629 13.7881 0.624866 13.7859 0.646899 13.7815C0.668933 13.7771 0.693169 13.7661 0.719609 13.7484L4.63273 11.7919L8.54586 13.7484C8.58993 13.7749 8.6384 13.7881 8.69128 13.7881C8.74416 13.7881 8.79263 13.7749 8.8367 13.7484L12.9085 11.7258C12.9613 11.6905 13.0054 11.6464 13.0407 11.5936C13.0759 11.5407 13.0935 11.4834 13.0935 11.4217V1.26873C13.0935 1.20704 13.0781 1.15195 13.0473 1.10348C13.0164 1.055 12.979 1.01314 12.9349 0.977888ZM4.28901 11.2102L0.90469 12.9023V3.50291L4.28901 1.81075V11.2102ZM4.96324 1.81075L8.34756 3.50291V12.9023L4.96324 11.2102V1.81075ZM12.4193 11.2102L9.035 12.9023V3.50291L12.4193 1.81075V11.2102Z" fill="#D5F2FA"/>
</svg>
