<svg width="13" height="13" viewBox="0 0 13 13" fill="none" xmlns="http://www.w3.org/2000/svg">
<path d="M12.5893 2.65114L11.9265 1.98825C11.8283 1.89005 11.7157 1.84094 11.5889 1.84094C11.462 1.84094 11.3495 1.89005 11.2513 1.98825H11.2022L4.79426 8.62942C4.74515 8.67853 4.68787 8.70308 4.6224 8.70308C4.55693 8.70308 4.49964 8.67853 4.45054 8.62942L1.82353 5.80601L1.77443 5.7569C1.67622 5.66688 1.56369 5.62187 1.43684 5.62187C1.30999 5.62187 1.20156 5.66688 1.11154 5.7569L0.436371 6.43207C0.387268 6.48117 0.350441 6.53641 0.32589 6.59779C0.301338 6.65917 0.289062 6.71441 0.289062 6.76351C0.289062 6.81262 0.301338 6.8699 0.32589 6.93537C0.350441 7.00084 0.387268 7.05813 0.436371 7.10723L0.534577 7.24227L4.2664 11.2687C4.3155 11.3178 4.36665 11.3546 4.41985 11.3792C4.47304 11.4037 4.53237 11.416 4.59784 11.416C4.6715 11.416 4.73492 11.4037 4.78812 11.3792C4.84131 11.3546 4.89246 11.3178 4.94157 11.2687L12.5893 3.32631C12.6876 3.2281 12.7367 3.11557 12.7367 2.98873C12.7367 2.86188 12.6876 2.74935 12.5893 2.65114Z" fill="#808187"/>
</svg>
