<svg width="259" height="60" viewBox="0 0 259 60" fill="none" xmlns="http://www.w3.org/2000/svg">
<g clip-path="url(#clip0_4207_693)">
<path d="M38.0957 1.68485C39.1736 2.76364 39.7791 4.22681 39.7791 5.75244L39.7525 37.1278C39.7597 38.4094 39.3385 39.6566 38.5556 40.6709C37.7728 41.6853 36.6733 42.4088 35.4323 42.7256C34.1914 43.0422 32.8801 42.9347 31.7073 42.4197C30.5345 41.9047 29.5676 41.0119 28.9603 39.8838C28.5049 39.0372 28.2718 38.0891 28.283 37.1278V5.75244C28.283 4.22681 28.8886 2.76364 29.9666 1.68485C31.0446 0.606059 32.5066 0 34.0312 0C35.5556 0 37.0177 0.606059 38.0957 1.68485ZM9.69951 41.2603C10.7466 42.3031 12.1638 42.8888 13.6412 42.8888C14.3734 42.8888 15.0984 42.7441 15.7747 42.4634C16.4511 42.1828 17.0655 41.7716 17.5828 41.2531C18.1001 40.7344 18.5102 40.1188 18.7896 39.4416C19.069 38.7641 19.2122 38.0384 19.2111 37.3056L19.1398 11.2191L8 23.1609L8.05346 37.3234C8.06055 38.8022 8.65239 40.2175 9.69951 41.2603ZM54.3947 42.8888C55.8726 42.8909 57.2913 42.3066 58.3389 41.2631C59.3866 40.2194 59.9777 38.8028 59.9824 37.3234L60.0358 23.1609L48.8963 11.2191L48.8335 37.3056C48.8326 38.0378 48.9756 38.7628 49.2542 39.4394C49.533 40.1159 49.9424 40.7316 50.4589 41.2497C50.9751 41.7681 51.5887 42.1797 52.2638 42.4609C52.9392 42.7422 53.6634 42.8875 54.3947 42.8888ZM39.751 54.7622C39.8543 53.6278 39.6195 52.4878 39.0755 51.4863C38.7152 50.8209 38.2271 50.2334 37.6398 49.7569C37.0521 49.2803 36.3763 48.9247 35.651 48.7103C34.9258 48.4956 34.1654 48.4263 33.4134 48.5063C32.6614 48.5863 31.9326 48.8141 31.2687 49.1766C30.2682 49.7206 29.4514 50.5497 28.9216 51.5584C28.3919 52.5669 28.173 53.7103 28.2925 54.8434C28.412 55.9766 28.8647 57.0491 29.5932 57.9247C30.3218 58.8006 31.2935 59.4403 32.3854 59.7638C33.4774 60.0866 34.6406 60.0784 35.7278 59.74C36.8151 59.4013 37.7778 58.7481 38.4938 57.8619C39.2098 56.9759 39.6473 55.8972 39.751 54.7622Z" fill="#242F65"/>
<path d="M81.6515 24V2.82H85.0089L93.3427 15.81H91.634L99.9378 2.82H103.325V24H98.6187V10.77L99.4581 10.98L94.0322 19.44H90.9145L85.5186 10.98L86.328 10.77V24H81.6515Z" fill="#242F65"/>
<path d="M110.981 15.27V11.79H115.448C116.387 11.79 117.107 11.55 117.606 11.07C118.126 10.59 118.386 9.94 118.386 9.12C118.386 8.36 118.136 7.73 117.636 7.23C117.137 6.73 116.417 6.48 115.478 6.48H110.981V2.82H116.018C117.417 2.82 118.646 3.09 119.705 3.63C120.764 4.15 121.593 4.88 122.193 5.82C122.793 6.76 123.092 7.84 123.092 9.06C123.092 10.3 122.793 11.39 122.193 12.33C121.593 13.25 120.754 13.97 119.675 14.49C118.596 15.01 117.327 15.27 115.868 15.27H110.981ZM107.384 24V2.82H112.091V24H107.384ZM118.895 24L112.3 14.88L116.617 13.71L124.471 24H118.895Z" fill="#242F65"/>
<path d="M132.358 24.33C130.619 24.33 129.121 24.05 127.862 23.49C126.622 22.91 125.483 22.04 124.444 20.88L127.502 17.85C128.181 18.63 128.931 19.24 129.75 19.68C130.59 20.1 131.559 20.31 132.658 20.31C133.657 20.31 134.427 20.13 134.966 19.77C135.526 19.41 135.806 18.91 135.806 18.27C135.806 17.69 135.626 17.22 135.266 16.86C134.906 16.5 134.427 16.19 133.827 15.93C133.248 15.67 132.598 15.42 131.879 15.18C131.179 14.94 130.48 14.67 129.78 14.37C129.081 14.05 128.431 13.66 127.832 13.2C127.252 12.72 126.782 12.13 126.423 11.43C126.063 10.71 125.883 9.81 125.883 8.73C125.883 7.43 126.193 6.31 126.812 5.37C127.452 4.43 128.331 3.72 129.45 3.24C130.57 2.74 131.859 2.49 133.317 2.49C134.796 2.49 136.145 2.75 137.364 3.27C138.604 3.79 139.623 4.5 140.422 5.4L137.364 8.43C136.725 7.77 136.075 7.28 135.416 6.96C134.776 6.64 134.047 6.48 133.228 6.48C132.408 6.48 131.759 6.64 131.279 6.96C130.799 7.26 130.56 7.7 130.56 8.28C130.56 8.82 130.739 9.26 131.099 9.6C131.459 9.92 131.929 10.2 132.508 10.44C133.108 10.68 133.757 10.92 134.457 11.16C135.176 11.4 135.886 11.68 136.585 12C137.284 12.32 137.924 12.73 138.504 13.23C139.103 13.71 139.583 14.33 139.943 15.09C140.302 15.83 140.482 16.75 140.482 17.85C140.482 19.87 139.763 21.46 138.324 22.62C136.885 23.76 134.896 24.33 132.358 24.33Z" fill="#242F65"/>
<path d="M145.938 24.33C145.159 24.33 144.509 24.06 143.99 23.52C143.47 22.98 143.21 22.33 143.21 21.57C143.21 20.77 143.47 20.11 143.99 19.59C144.509 19.05 145.159 18.78 145.938 18.78C146.738 18.78 147.387 19.05 147.887 19.59C148.406 20.11 148.666 20.77 148.666 21.57C148.666 22.33 148.406 22.98 147.887 23.52C147.387 24.06 146.738 24.33 145.938 24.33Z" fill="#242F65"/>
<path d="M161.773 24V20.34H166.75C167.669 20.34 168.388 20.07 168.908 19.53C169.428 18.99 169.687 18.33 169.687 17.55C169.687 17.01 169.568 16.53 169.328 16.11C169.088 15.69 168.748 15.36 168.308 15.12C167.889 14.88 167.369 14.76 166.75 14.76H161.773V11.19H166.36C167.139 11.19 167.769 11 168.249 10.62C168.728 10.22 168.968 9.62 168.968 8.82C168.968 8.04 168.728 7.46 168.249 7.08C167.769 6.68 167.139 6.48 166.36 6.48H161.773V2.82H167.259C168.618 2.82 169.767 3.07 170.707 3.57C171.666 4.07 172.395 4.74 172.895 5.58C173.395 6.42 173.644 7.35 173.644 8.37C173.644 9.67 173.225 10.77 172.385 11.67C171.546 12.57 170.307 13.19 168.668 13.53L168.788 11.94C170.567 12.28 171.936 12.97 172.895 14.01C173.874 15.05 174.364 16.33 174.364 17.85C174.364 19.01 174.074 20.06 173.495 21C172.935 21.92 172.116 22.65 171.036 23.19C169.977 23.73 168.698 24 167.199 24H161.773ZM158.176 24V2.82H162.823V24H158.176Z" fill="#242F65"/>
<path d="M185.894 24.33C184.155 24.33 182.616 23.96 181.277 23.22C179.958 22.48 178.919 21.46 178.16 20.16C177.42 18.84 177.051 17.34 177.051 15.66V2.82H181.787V15.93C181.787 16.77 181.967 17.5 182.327 18.12C182.686 18.74 183.176 19.22 183.796 19.56C184.435 19.88 185.135 20.04 185.894 20.04C186.693 20.04 187.393 19.88 187.992 19.56C188.592 19.22 189.062 18.75 189.401 18.15C189.761 17.53 189.941 16.8 189.941 15.96V2.82H194.677V15.69C194.677 17.37 194.308 18.86 193.568 20.16C192.829 21.46 191.8 22.48 190.481 23.22C189.162 23.96 187.633 24.33 185.894 24.33Z" fill="#242F65"/>
<path d="M198.429 24V2.82H201.727L203.136 7.05V24H198.429ZM213.028 24L200.557 8.01L201.727 2.82L214.197 18.81L213.028 24ZM213.028 24L211.769 19.77V2.82H216.476V24H213.028Z" fill="#242F65"/>
<path d="M220.561 24V2.82H223.918L232.252 15.81H230.543L238.847 2.82H242.235V24H237.528V10.77L238.368 10.98L232.942 19.44H229.824L224.428 10.98L225.237 10.77V24H220.561Z" fill="#242F65"/>
<path d="M246.294 24V2.82H251V24H246.294Z" fill="#242F65"/>
<path d="M91.634 57.33C90.0951 57.33 88.6462 57.05 87.2872 56.49C85.9482 55.93 84.7791 55.16 83.7799 54.18C82.7806 53.18 81.9912 52.02 81.4117 50.7C80.8521 49.36 80.5723 47.92 80.5723 46.38C80.5723 44.84 80.8621 43.41 81.4416 42.09C82.0212 40.77 82.8206 39.62 83.8398 38.64C84.8791 37.64 86.0882 36.87 87.4671 36.33C88.8461 35.77 90.325 35.49 91.9038 35.49C93.7224 35.49 95.3712 35.82 96.8501 36.48C98.3489 37.14 99.588 38.05 100.567 39.21L97.3597 42.42C96.6802 41.54 95.8808 40.88 94.9615 40.44C94.0422 40 93.003 39.78 91.8438 39.78C90.6048 39.78 89.4956 40.06 88.5163 40.62C87.5371 41.16 86.7676 41.93 86.2081 42.93C85.6685 43.91 85.3987 45.06 85.3987 46.38C85.3987 47.7 85.6685 48.86 86.2081 49.86C86.7477 50.86 87.4871 51.64 88.4264 52.2C89.3657 52.76 90.4449 53.04 91.664 53.04C92.903 53.04 93.9522 52.81 94.8116 52.35C95.6909 51.87 96.3604 51.19 96.8201 50.31C97.2997 49.41 97.5396 48.32 97.5396 47.04L100.657 49.14L91.2143 48.99V45H102.336V45.69C102.336 48.23 101.876 50.37 100.957 52.11C100.058 53.83 98.7986 55.13 97.1798 56.01C95.581 56.89 93.7324 57.33 91.634 57.33Z" fill="#242F65"/>
<path d="M105.188 57V35.82H109.895V57H105.188ZM108.786 57V52.92H120.387V57H108.786ZM108.786 48.15V44.22H119.338V48.15H108.786ZM108.786 39.87V35.82H120.237V39.87H108.786Z" fill="#242F65"/>
<path d="M133.354 57.36C131.755 57.36 130.276 57.08 128.917 56.52C127.578 55.96 126.399 55.18 125.38 54.18C124.36 53.18 123.571 52.02 123.011 50.7C122.452 49.36 122.172 47.92 122.172 46.38C122.172 44.82 122.452 43.38 123.011 42.06C123.571 40.74 124.35 39.59 125.35 38.61C126.349 37.61 127.518 36.84 128.857 36.3C130.216 35.74 131.695 35.46 133.294 35.46C134.872 35.46 136.331 35.74 137.67 36.3C139.029 36.84 140.208 37.61 141.208 38.61C142.227 39.59 143.016 40.75 143.576 42.09C144.135 43.41 144.415 44.85 144.415 46.41C144.415 47.95 144.135 49.39 143.576 50.73C143.016 52.05 142.237 53.21 141.238 54.21C140.238 55.19 139.059 55.96 137.7 56.52C136.361 57.08 134.912 57.36 133.354 57.36ZM133.294 53.07C134.553 53.07 135.652 52.79 136.591 52.23C137.55 51.67 138.29 50.89 138.809 49.89C139.329 48.87 139.589 47.7 139.589 46.38C139.589 45.38 139.439 44.48 139.139 43.68C138.839 42.86 138.41 42.16 137.85 41.58C137.291 40.98 136.621 40.53 135.842 40.23C135.082 39.91 134.233 39.75 133.294 39.75C132.035 39.75 130.925 40.03 129.966 40.59C129.027 41.13 128.297 41.9 127.778 42.9C127.258 43.88 126.998 45.04 126.998 46.38C126.998 47.38 127.148 48.29 127.448 49.11C127.748 49.93 128.167 50.64 128.707 51.24C129.267 51.82 129.936 52.27 130.716 52.59C131.495 52.91 132.354 53.07 133.294 53.07Z" fill="#242F65"/>
<path d="M151 48.27V44.79H155.467C156.406 44.79 157.126 44.55 157.625 44.07C158.145 43.59 158.405 42.94 158.405 42.12C158.405 41.36 158.155 40.73 157.655 40.23C157.156 39.73 156.436 39.48 155.497 39.48H151V35.82H156.036C157.435 35.82 158.664 36.09 159.724 36.63C160.783 37.15 161.612 37.88 162.212 38.82C162.811 39.76 163.111 40.84 163.111 42.06C163.111 43.3 162.811 44.39 162.212 45.33C161.612 46.25 160.773 46.97 159.694 47.49C158.615 48.01 157.345 48.27 155.887 48.27H151ZM147.403 57V35.82H152.109V57H147.403ZM158.914 57L152.319 47.88L156.636 46.71L164.49 57H158.914Z" fill="#242F65"/>
<path d="M176.443 57.33C174.905 57.33 173.456 57.05 172.097 56.49C170.758 55.93 169.589 55.16 168.589 54.18C167.59 53.18 166.801 52.02 166.221 50.7C165.661 49.36 165.382 47.92 165.382 46.38C165.382 44.84 165.671 43.41 166.251 42.09C166.831 40.77 167.63 39.62 168.649 38.64C169.688 37.64 170.898 36.87 172.277 36.33C173.655 35.77 175.134 35.49 176.713 35.49C178.532 35.49 180.181 35.82 181.659 36.48C183.158 37.14 184.397 38.05 185.377 39.21L182.169 42.42C181.49 41.54 180.69 40.88 179.771 40.44C178.852 40 177.812 39.78 176.653 39.78C175.414 39.78 174.305 40.06 173.326 40.62C172.346 41.16 171.577 41.93 171.017 42.93C170.478 43.91 170.208 45.06 170.208 46.38C170.208 47.7 170.478 48.86 171.017 49.86C171.557 50.86 172.296 51.64 173.236 52.2C174.175 52.76 175.254 53.04 176.473 53.04C177.712 53.04 178.762 52.81 179.621 52.35C180.5 51.87 181.17 51.19 181.63 50.31C182.109 49.41 182.349 48.32 182.349 47.04L185.467 49.14L176.024 48.99V45H187.145V45.69C187.145 48.23 186.686 50.37 185.766 52.11C184.867 53.83 183.608 55.13 181.989 56.01C180.39 56.89 178.542 57.33 176.443 57.33Z" fill="#242F65"/>
<path d="M189.998 57V35.82H194.704V57H189.998ZM193.595 57V52.92H205.196V57H193.595ZM193.595 48.15V44.22H204.147V48.15H193.595ZM193.595 39.87V35.82H205.047V39.87H193.595Z" fill="#242F65"/>
</g>
<defs>
<clipPath id="clip0_4207_693">
<rect width="259" height="60" fill="white"/>
</clipPath>
</defs>
</svg>
