<svg width="14" height="14" viewBox="0 0 14 14" fill="none" xmlns="http://www.w3.org/2000/svg">
<path d="M13.292 13.3257V12.3607V10.0868V7.44284V5.3673C13.292 5.32323 13.2722 5.27696 13.2325 5.22849C13.1929 5.18001 13.1466 5.13815 13.0937 5.1029L11.0182 3.59582V1.93009C11.0182 1.84196 10.9896 1.77366 10.9323 1.72518C10.875 1.67671 10.8111 1.65247 10.7406 1.65247H8.36097L7.15795 0.766732C7.11388 0.740292 7.06321 0.727072 7.00592 0.727072C6.94863 0.727072 6.89795 0.740292 6.85389 0.766732L5.65087 1.65247H3.27126C3.19194 1.65247 3.12584 1.68112 3.07296 1.7384C3.02008 1.79569 2.99364 1.85959 2.99364 1.93009V3.56938L0.89166 5.1029C0.829966 5.14697 0.781493 5.19103 0.746239 5.2351C0.710986 5.27917 0.693359 5.32323 0.693359 5.3673V7.46928V10.1133V12.4136V13.3786C0.693359 13.4579 0.717596 13.5218 0.766069 13.5703C0.814543 13.6188 0.874033 13.6474 0.94454 13.6562H0.95776H13.0144C13.1026 13.6562 13.1709 13.6254 13.2193 13.5637C13.2678 13.502 13.292 13.4227 13.292 13.3257ZM12.7765 5.85644V12.8234L8.22877 9.18788L12.7765 5.85644ZM12.5649 5.38052L11.0182 6.50422V4.23038L12.5649 5.38052ZM6.99931 1.29553L7.47523 1.65247H6.51017L6.99931 1.29553ZM10.463 2.19449V6.91404L6.99931 9.43906L3.52244 6.91404V2.19449H10.463ZM1.20894 5.85644L5.76985 9.18788L1.20894 12.8498V5.85644ZM3.00686 6.53066L1.40724 5.3673L3.00686 4.20394V6.53066ZM1.7113 13.1274L6.20611 9.50516L6.82745 9.96786C6.88914 10.0119 6.94422 10.034 6.9927 10.034C7.04117 10.034 7.09626 10.0119 7.15795 9.96786L7.77929 9.50516L12.3005 13.1274H1.7113ZM5.14851 3.54294H8.86333V4.07174H5.14851V3.54294ZM5.14851 5.22188H8.86333V5.75068H5.14851V5.22188ZM5.14851 6.90082H8.86333V7.42962H5.14851V6.90082Z" fill="#D5F2FA"/>
</svg>
