<svg width="15" height="15" viewBox="0 0 15 15" fill="none" xmlns="http://www.w3.org/2000/svg">
<path d="M12.6989 7.42162L2.68473 0.509439C2.63751 0.471667 2.58086 0.450421 2.51476 0.4457C2.44866 0.440978 2.38728 0.457503 2.33062 0.495275C2.27396 0.523603 2.22911 0.563735 2.19606 0.615671C2.16301 0.667607 2.14648 0.726624 2.14648 0.792725V14.6029C2.14648 14.669 2.16301 14.7304 2.19606 14.7871C2.22911 14.8437 2.27396 14.8862 2.33062 14.9145L2.41561 14.9429L2.48643 14.957C2.5242 14.957 2.55961 14.9523 2.59266 14.9429C2.62571 14.9334 2.6564 14.9145 2.68473 14.8862L12.6989 7.98819C12.7461 7.95042 12.7839 7.90793 12.8122 7.86071C12.8405 7.8135 12.8547 7.76156 12.8547 7.70491C12.8547 7.64825 12.8405 7.59395 12.8122 7.54202C12.7839 7.49008 12.7461 7.44995 12.6989 7.42162Z" fill="#091D2D"/>
</svg>
