<svg width="14" height="14" viewBox="0 0 14 14" fill="none" xmlns="http://www.w3.org/2000/svg">
<path d="M11.5209 12.9023C11.4769 12.9023 11.4328 12.9023 11.3887 12.9023C9.58201 12.6996 7.91628 12.1047 6.39157 11.1176C4.97263 10.2187 3.81367 9.06413 2.91471 7.654C1.92761 6.12047 1.33712 4.45035 1.14323 2.64361C1.10797 2.24701 1.21594 1.89888 1.46712 1.59923C1.7183 1.29957 2.03778 1.13212 2.42557 1.09687C2.43438 1.09687 2.4476 1.09687 2.46523 1.09687C2.48286 1.09687 2.49828 1.09687 2.5115 1.09687C2.52472 1.09687 2.53574 1.09687 2.54455 1.09687H4.23671H4.24993C4.47908 1.09687 4.69501 1.14975 4.89771 1.25551C5.10042 1.36127 5.26787 1.50669 5.40007 1.69177C5.53227 1.87685 5.616 2.08396 5.65125 2.31311C5.68651 2.5687 5.73498 2.82428 5.79667 3.07987C5.85837 3.33546 5.93769 3.58664 6.03463 3.83341C6.09633 4.00968 6.12497 4.18594 6.12056 4.36221C6.11616 4.53848 6.0787 4.71034 6.00819 4.87779C5.93769 5.04525 5.84074 5.19507 5.71735 5.32727L5.14889 5.88251C5.89803 7.1252 6.89394 8.1211 8.13662 8.87024L8.69186 8.315C8.88575 8.1211 9.11931 7.99551 9.39252 7.93823C9.66573 7.88094 9.93013 7.89636 10.1857 7.9845C10.6793 8.16958 11.186 8.29737 11.706 8.36788C12.0586 8.42076 12.3516 8.5838 12.5852 8.85702C12.8187 9.13023 12.9311 9.44311 12.9223 9.79564V11.4878C12.9223 11.8756 12.7857 12.2083 12.5124 12.4859C12.2392 12.7635 11.9087 12.9023 11.5209 12.9023ZM4.24993 1.66533H2.54455C2.53574 1.66533 2.52472 1.66533 2.5115 1.66533C2.49828 1.66533 2.48726 1.66533 2.47845 1.66533C2.39913 1.67414 2.32422 1.68956 2.25371 1.7116C2.1832 1.73363 2.11931 1.76668 2.06202 1.81075C2.00473 1.85481 1.94965 1.90769 1.89677 1.96939C1.82626 2.05752 1.77558 2.15447 1.74474 2.26023C1.71389 2.36599 1.70287 2.47175 1.71169 2.57751C1.88795 4.30492 2.4476 5.89573 3.39063 7.34994C4.24552 8.68956 5.34719 9.78683 6.69563 10.6417C8.14102 11.5847 9.72302 12.1488 11.4416 12.3339C11.4681 12.3339 11.4945 12.3339 11.5209 12.3339C11.7501 12.3339 11.9462 12.2502 12.1092 12.0827C12.2723 11.9152 12.3538 11.7169 12.3538 11.4878V9.79564V9.78242C12.3626 9.5709 12.2965 9.38362 12.1555 9.22057C12.0145 9.05752 11.8382 8.95837 11.6267 8.92312C11.0626 8.85261 10.5162 8.716 9.98742 8.5133C9.88166 8.47804 9.7759 8.46262 9.67014 8.46703C9.56438 8.47143 9.46082 8.49347 9.35947 8.53313C9.25811 8.57279 9.16778 8.63228 9.08846 8.7116L8.37458 9.42548C8.34814 9.45192 8.31509 9.47175 8.27543 9.48497C8.23577 9.49819 8.19611 9.5048 8.15645 9.5048C8.11679 9.5048 8.07933 9.49158 8.04408 9.46514C6.55462 8.62787 5.39126 7.46451 4.55399 5.97505C4.51874 5.92217 4.50552 5.86489 4.51433 5.80319C4.52315 5.7415 4.54959 5.68862 4.59365 5.64455L5.30753 4.93067C5.36923 4.86898 5.4177 4.80288 5.45295 4.73237C5.48821 4.66187 5.51465 4.58695 5.53227 4.50763C5.5499 4.42831 5.55651 4.34899 5.5521 4.26967C5.5477 4.19035 5.53227 4.11103 5.50583 4.03171C5.30313 3.50291 5.16652 2.95208 5.09601 2.37921C5.06957 2.24701 5.01669 2.12582 4.93737 2.01566C4.85805 1.90549 4.7589 1.81956 4.63992 1.75787C4.52094 1.69617 4.39094 1.66533 4.24993 1.66533Z" fill="#D5F2FA"/>
</svg>
