<svg width="24" height="24" viewBox="0 0 24 24" fill="none" xmlns="http://www.w3.org/2000/svg">
<path d="M23.5806 6.45911C23.5806 6.12672 23.4673 5.84721 23.2407 5.62058C23.014 5.39395 22.7345 5.28064 22.4021 5.28064L1.57495 5.3033C1.42387 5.3033 1.27656 5.33352 1.13303 5.39395C0.989497 5.45438 0.857296 5.53748 0.736428 5.64324C0.630668 5.76411 0.54757 5.89631 0.487136 6.03984C0.426702 6.18337 0.396484 6.33068 0.396484 6.48177L0.419147 18.1985C0.419147 18.3496 0.449364 18.4969 0.509799 18.6404C0.570233 18.7839 0.65333 18.9161 0.759091 19.037C0.879959 19.1428 1.01216 19.2259 1.15569 19.2863C1.29922 19.3467 1.44653 19.377 1.59762 19.377L22.4248 19.3543C22.7421 19.3543 23.0178 19.2372 23.252 19.003C23.4862 18.7688 23.6033 18.4855 23.6033 18.1532L23.5806 6.45911ZM21.0877 6.45911L11.9999 12.7821L2.8894 6.48177L21.0877 6.45911ZM15.8526 13.9832L21.2463 18.1532L2.75342 18.1758L8.16986 13.9832C8.30583 13.8774 8.38138 13.7452 8.39648 13.5866C8.41159 13.4279 8.37382 13.2806 8.28317 13.1447C8.17741 13.0087 8.04521 12.9331 7.88657 12.918C7.72793 12.9029 7.58062 12.9407 7.44464 13.0313L1.59762 17.5639L1.57495 7.02568L11.6599 14.0058C11.7204 14.0361 11.777 14.0587 11.8299 14.0738C11.8828 14.0889 11.9394 14.0965 11.9999 14.0965C12.0603 14.0965 12.1208 14.0889 12.1812 14.0738C12.2416 14.0587 12.2945 14.0361 12.3398 14.0058L22.4021 7.00302L22.4248 17.5639L16.5778 13.0313C16.4418 12.9407 16.2945 12.9029 16.1359 12.918C15.9772 12.9331 15.845 13.0087 15.7393 13.1447C15.6335 13.2806 15.592 13.4279 15.6146 13.5866C15.6373 13.7452 15.7166 13.8774 15.8526 13.9832Z" fill="#091D2D"/>
</svg>
